<?xml version="1.0" encoding="UTF-8"?>
<svg id="Camada_1" xmlns="http://www.w3.org/2000/svg" version="1.1" viewBox="0 0 189 27.3">
  <!-- Generator: Adobe Illustrator 29.8.2, SVG Export Plug-In . SVG Version: 2.1.1 Build 3)  -->
  <defs>
    <style>
      .st0 {
        fill: #e84e2b;
      }
    </style>
  </defs>
  <polygon class="st0" points="0 5.8 177.1 5.8 171 26.9 189 0 0 5.8"/>
  <g>
    <path d="M13,26.9H1.9v-15.2h11.1c5.4,0,10.5,1.7,10.5,7.4s-5,7.8-10.5,7.8h0ZM12.3,14.9h-6.1v8.7h6.1c4.3,0,6.8-1.5,6.8-4.5s-2.6-4.2-6.8-4.2Z"/>
    <path d="M25.8,26.9v-15.2h4.2v15.2h-4.2Z"/>
    <path d="M41.6,27.3c-3.2,0-6.3-.3-9.1-1.3l.9-3.2c2.2.8,5,1.3,8.2,1.3s5.8-.6,5.8-1.6-1.5-1.3-5.6-1.6c-6.2-.5-9.3-1.5-9.3-4.8s3.8-4.8,10.1-4.8,6.3.3,8.5,1.2l-.9,3.2c-2.1-.8-4.7-1.2-7.7-1.2s-5.7.4-5.7,1.3,1.3,1.2,5.1,1.5c6.3.5,9.7,1.1,9.7,4.7s-4.1,5.3-10.1,5.3h0Z"/>
    <path d="M65.4,15v11.8h-4.2v-11.8h-8.5v-3.4h21.2v3.4h-8.5Z"/>
    <path d="M89.8,26.9l-5.2-5.7h-4.6v5.7h-4.2v-15.2h14c2.9,0,5.4,1.5,5.4,4.7s-2.1,4.5-4.8,4.6h-.7l5.8,5.9h-5.7,0ZM88.7,14.9h-8.7v3.3h8.9c1.2,0,2.1-.5,2.1-1.7s-.9-1.6-2.2-1.6Z"/>
    <path d="M97.9,26.9v-15.2h4.2v15.2h-4.2Z"/>
    <path d="M119.2,26.9h-14v-15.2h14c2.9,0,5.4,1.1,5.4,3.8s-.9,2.3-2,2.6c1.7.2,3.3,1.5,3.3,3.6,0,3.6-3.1,5.2-6.7,5.2ZM118.4,14.8h-8.9v2.3h8.9c1.1,0,1.8-.4,1.8-1.1s-.8-1.1-1.8-1.1h0ZM118.4,20.2h-9v3.5h9.1c1.9,0,2.9-.6,2.9-1.8s-.8-1.6-3.1-1.6Z"/>
    <path d="M148.3,20.9c0,5.1-5.8,6.4-10.1,6.4s-10.1-1.4-10.1-6.4v-9.2h4.2v8.7c0,2.4,2.4,3.8,5.9,3.8s5.9-1.5,5.9-3.8v-8.7h4.2v9.2Z"/>
    <polygon points="155.4 23.6 155.4 20.2 166.9 20.2 167.8 17.2 155.4 17.2 155.4 14.9 168.4 14.9 169.4 11.6 169.4 11.6 151.2 11.6 151.2 26.9 164.9 26.9 165.9 23.6 155.4 23.6"/>
  </g>
</svg>